<mxfile host="65bd71144e">
    <diagram id="u9rXE1uIUANwSrxgtIQM" name="Page-1">
        <mxGraphModel dx="1783" dy="783" grid="1" gridSize="10" guides="1" tooltips="1" connect="1" arrows="1" fold="1" page="1" pageScale="1" pageWidth="850" pageHeight="1100" math="0" shadow="0">
            <root>
                <mxCell id="0"/>
                <mxCell id="1" parent="0"/>
                <mxCell id="4u6x7rTlO3XGqmi1SIRX-15" value="" style="group" parent="1" vertex="1" connectable="0">
                    <mxGeometry x="350" y="220" width="120" height="80" as="geometry"/>
                </mxCell>
                <mxCell id="4u6x7rTlO3XGqmi1SIRX-16" value="" style="ellipse;whiteSpace=wrap;html=1;fontSize=20;fillColor=#33FFFF;" parent="4u6x7rTlO3XGqmi1SIRX-15" vertex="1">
                    <mxGeometry width="120" height="80" as="geometry"/>
                </mxCell>
                <mxCell id="4u6x7rTlO3XGqmi1SIRX-17" value="Name" style="text;html=1;strokeColor=none;fillColor=none;align=center;verticalAlign=middle;whiteSpace=wrap;rounded=0;fontSize=20;" parent="4u6x7rTlO3XGqmi1SIRX-15" vertex="1">
                    <mxGeometry x="10" y="20" width="100" height="40" as="geometry"/>
                </mxCell>
                <mxCell id="4u6x7rTlO3XGqmi1SIRX-41" value="" style="group" parent="1" vertex="1" connectable="0">
                    <mxGeometry x="360" y="300" width="120" height="80" as="geometry"/>
                </mxCell>
                <mxCell id="4u6x7rTlO3XGqmi1SIRX-42" value="" style="ellipse;whiteSpace=wrap;html=1;fontSize=20;fillColor=#33FFFF;" parent="4u6x7rTlO3XGqmi1SIRX-41" vertex="1">
                    <mxGeometry width="120" height="80" as="geometry"/>
                </mxCell>
                <mxCell id="4u6x7rTlO3XGqmi1SIRX-43" value="&lt;u&gt;restID&lt;/u&gt;" style="text;html=1;strokeColor=none;fillColor=none;align=center;verticalAlign=middle;whiteSpace=wrap;rounded=0;fontSize=20;" parent="4u6x7rTlO3XGqmi1SIRX-41" vertex="1">
                    <mxGeometry x="10" y="20" width="100" height="40" as="geometry"/>
                </mxCell>
                <mxCell id="4u6x7rTlO3XGqmi1SIRX-47" value="" style="group" parent="1" vertex="1" connectable="0">
                    <mxGeometry x="410" y="150" width="120" height="80" as="geometry"/>
                </mxCell>
                <mxCell id="4u6x7rTlO3XGqmi1SIRX-48" value="" style="ellipse;whiteSpace=wrap;html=1;fontSize=20;fillColor=#33FFFF;" parent="4u6x7rTlO3XGqmi1SIRX-47" vertex="1">
                    <mxGeometry width="120" height="80" as="geometry"/>
                </mxCell>
                <mxCell id="4u6x7rTlO3XGqmi1SIRX-49" value="Address" style="text;html=1;strokeColor=none;fillColor=none;align=center;verticalAlign=middle;whiteSpace=wrap;rounded=0;fontSize=20;" parent="4u6x7rTlO3XGqmi1SIRX-47" vertex="1">
                    <mxGeometry x="10" y="20" width="100" height="40" as="geometry"/>
                </mxCell>
                <mxCell id="4u6x7rTlO3XGqmi1SIRX-50" value="" style="group" parent="1" vertex="1" connectable="0">
                    <mxGeometry x="530" y="130" width="120" height="80" as="geometry"/>
                </mxCell>
                <mxCell id="4u6x7rTlO3XGqmi1SIRX-51" value="" style="ellipse;whiteSpace=wrap;html=1;fontSize=20;fillColor=#33FFFF;" parent="4u6x7rTlO3XGqmi1SIRX-50" vertex="1">
                    <mxGeometry width="120" height="80" as="geometry"/>
                </mxCell>
                <mxCell id="4u6x7rTlO3XGqmi1SIRX-52" value="City" style="text;html=1;strokeColor=none;fillColor=none;align=center;verticalAlign=middle;whiteSpace=wrap;rounded=0;fontSize=20;" parent="4u6x7rTlO3XGqmi1SIRX-50" vertex="1">
                    <mxGeometry x="10" y="20" width="100" height="40" as="geometry"/>
                </mxCell>
                <mxCell id="4u6x7rTlO3XGqmi1SIRX-53" value="" style="group" parent="1" vertex="1" connectable="0">
                    <mxGeometry x="650" y="160" width="120" height="80" as="geometry"/>
                </mxCell>
                <mxCell id="4u6x7rTlO3XGqmi1SIRX-54" value="" style="ellipse;whiteSpace=wrap;html=1;fontSize=20;fillColor=#33FFFF;" parent="4u6x7rTlO3XGqmi1SIRX-53" vertex="1">
                    <mxGeometry width="120" height="80" as="geometry"/>
                </mxCell>
                <mxCell id="4u6x7rTlO3XGqmi1SIRX-55" value="State" style="text;html=1;strokeColor=none;fillColor=none;align=center;verticalAlign=middle;whiteSpace=wrap;rounded=0;fontSize=20;" parent="4u6x7rTlO3XGqmi1SIRX-53" vertex="1">
                    <mxGeometry x="10" y="20" width="100" height="40" as="geometry"/>
                </mxCell>
                <mxCell id="4u6x7rTlO3XGqmi1SIRX-56" value="" style="group" parent="1" vertex="1" connectable="0">
                    <mxGeometry x="720" y="320" width="120" height="80" as="geometry"/>
                </mxCell>
                <mxCell id="4u6x7rTlO3XGqmi1SIRX-57" value="" style="ellipse;whiteSpace=wrap;html=1;fontSize=20;fillColor=#33FFFF;" parent="4u6x7rTlO3XGqmi1SIRX-56" vertex="1">
                    <mxGeometry width="120" height="80" as="geometry"/>
                </mxCell>
                <mxCell id="4u6x7rTlO3XGqmi1SIRX-58" value="Grade" style="text;html=1;strokeColor=none;fillColor=none;align=center;verticalAlign=middle;whiteSpace=wrap;rounded=0;fontSize=20;" parent="4u6x7rTlO3XGqmi1SIRX-56" vertex="1">
                    <mxGeometry x="10" y="20" width="100" height="40" as="geometry"/>
                </mxCell>
                <mxCell id="4u6x7rTlO3XGqmi1SIRX-62" value="" style="endArrow=none;html=1;rounded=0;fontSize=20;" parent="1" source="4u6x7rTlO3XGqmi1SIRX-32" target="4u6x7rTlO3XGqmi1SIRX-42" edge="1">
                    <mxGeometry width="50" height="50" relative="1" as="geometry">
                        <mxPoint x="590" y="300" as="sourcePoint"/>
                        <mxPoint x="465" y="225" as="targetPoint"/>
                    </mxGeometry>
                </mxCell>
                <mxCell id="4u6x7rTlO3XGqmi1SIRX-64" value="" style="endArrow=none;html=1;rounded=0;fontSize=20;" parent="1" source="4u6x7rTlO3XGqmi1SIRX-48" target="4u6x7rTlO3XGqmi1SIRX-32" edge="1">
                    <mxGeometry width="50" height="50" relative="1" as="geometry">
                        <mxPoint x="629.9831927159856" y="320" as="sourcePoint"/>
                        <mxPoint x="665.5926534023685" y="266.54088384300564" as="targetPoint"/>
                    </mxGeometry>
                </mxCell>
                <mxCell id="4u6x7rTlO3XGqmi1SIRX-65" value="" style="endArrow=none;html=1;rounded=0;fontSize=20;" parent="1" source="4u6x7rTlO3XGqmi1SIRX-51" target="4u6x7rTlO3XGqmi1SIRX-32" edge="1">
                    <mxGeometry width="50" height="50" relative="1" as="geometry">
                        <mxPoint x="715.6050763352093" y="316.8811832063144" as="sourcePoint"/>
                        <mxPoint x="670.0000000000001" y="331.25" as="targetPoint"/>
                    </mxGeometry>
                </mxCell>
                <mxCell id="4u6x7rTlO3XGqmi1SIRX-66" value="" style="endArrow=none;html=1;rounded=0;fontSize=20;" parent="1" source="4u6x7rTlO3XGqmi1SIRX-32" target="4u6x7rTlO3XGqmi1SIRX-54" edge="1">
                    <mxGeometry width="50" height="50" relative="1" as="geometry">
                        <mxPoint x="713.7725860891568" y="376.0400903393768" as="sourcePoint"/>
                        <mxPoint x="670.0000000000001" y="365" as="targetPoint"/>
                    </mxGeometry>
                </mxCell>
                <mxCell id="4u6x7rTlO3XGqmi1SIRX-67" value="" style="endArrow=none;html=1;rounded=0;fontSize=20;" parent="1" source="4u6x7rTlO3XGqmi1SIRX-57" target="4u6x7rTlO3XGqmi1SIRX-32" edge="1">
                    <mxGeometry width="50" height="50" relative="1" as="geometry">
                        <mxPoint x="634.5481303073393" y="380" as="sourcePoint"/>
                        <mxPoint x="671.274019734461" y="424.88230545542797" as="targetPoint"/>
                    </mxGeometry>
                </mxCell>
                <mxCell id="4u6x7rTlO3XGqmi1SIRX-96" value="" style="group" parent="1" vertex="1" connectable="0">
                    <mxGeometry x="400" y="440" width="80" height="80" as="geometry"/>
                </mxCell>
                <mxCell id="4u6x7rTlO3XGqmi1SIRX-97" value="" style="rhombus;whiteSpace=wrap;html=1;fontSize=20;fillColor=#FFFF00;" parent="4u6x7rTlO3XGqmi1SIRX-96" vertex="1">
                    <mxGeometry width="80" height="80" as="geometry"/>
                </mxCell>
                <mxCell id="4u6x7rTlO3XGqmi1SIRX-98" value="Offers" style="text;html=1;strokeColor=none;fillColor=none;align=center;verticalAlign=middle;whiteSpace=wrap;rounded=0;fontSize=20;" parent="4u6x7rTlO3XGqmi1SIRX-96" vertex="1">
                    <mxGeometry x="10" y="25" width="60" height="30" as="geometry"/>
                </mxCell>
                <mxCell id="4u6x7rTlO3XGqmi1SIRX-99" value="" style="endArrow=none;html=1;rounded=0;fontSize=20;" parent="1" source="4u6x7rTlO3XGqmi1SIRX-32" target="4u6x7rTlO3XGqmi1SIRX-97" edge="1">
                    <mxGeometry width="50" height="50" relative="1" as="geometry">
                        <mxPoint x="650" y="530" as="sourcePoint"/>
                        <mxPoint x="700" y="480" as="targetPoint"/>
                    </mxGeometry>
                </mxCell>
                <mxCell id="4u6x7rTlO3XGqmi1SIRX-100" value="" style="endArrow=none;html=1;rounded=0;fontSize=20;" parent="1" source="4u6x7rTlO3XGqmi1SIRX-188" target="4u6x7rTlO3XGqmi1SIRX-97" edge="1">
                    <mxGeometry width="50" height="50" relative="1" as="geometry">
                        <mxPoint x="370" y="540" as="sourcePoint"/>
                        <mxPoint x="400" y="490" as="targetPoint"/>
                    </mxGeometry>
                </mxCell>
                <mxCell id="4u6x7rTlO3XGqmi1SIRX-101" value="1" style="text;html=1;strokeColor=none;fillColor=none;align=center;verticalAlign=middle;whiteSpace=wrap;rounded=0;fontSize=20;" parent="1" vertex="1">
                    <mxGeometry x="550" y="380" width="20" height="20" as="geometry"/>
                </mxCell>
                <mxCell id="4u6x7rTlO3XGqmi1SIRX-102" value="M" style="text;html=1;strokeColor=none;fillColor=none;align=center;verticalAlign=middle;whiteSpace=wrap;rounded=0;fontSize=20;" parent="1" vertex="1">
                    <mxGeometry x="390" y="540" width="20" height="20" as="geometry"/>
                </mxCell>
                <mxCell id="4u6x7rTlO3XGqmi1SIRX-103" value="" style="group" parent="1" vertex="1" connectable="0">
                    <mxGeometry x="160" y="460" width="120" height="80" as="geometry"/>
                </mxCell>
                <mxCell id="4u6x7rTlO3XGqmi1SIRX-104" value="" style="ellipse;whiteSpace=wrap;html=1;fontSize=20;fillColor=#33FFFF;" parent="4u6x7rTlO3XGqmi1SIRX-103" vertex="1">
                    <mxGeometry width="120" height="80" as="geometry"/>
                </mxCell>
                <mxCell id="4u6x7rTlO3XGqmi1SIRX-105" value="&lt;u&gt;itemID&lt;/u&gt;" style="text;html=1;strokeColor=none;fillColor=none;align=center;verticalAlign=middle;whiteSpace=wrap;rounded=0;fontSize=20;" parent="4u6x7rTlO3XGqmi1SIRX-103" vertex="1">
                    <mxGeometry x="10" y="20" width="100" height="40" as="geometry"/>
                </mxCell>
                <mxCell id="4u6x7rTlO3XGqmi1SIRX-106" value="" style="group" parent="1" vertex="1" connectable="0">
                    <mxGeometry x="170" y="630" width="120" height="80" as="geometry"/>
                </mxCell>
                <mxCell id="4u6x7rTlO3XGqmi1SIRX-107" value="" style="ellipse;whiteSpace=wrap;html=1;fontSize=20;fillColor=#33FFFF;" parent="4u6x7rTlO3XGqmi1SIRX-106" vertex="1">
                    <mxGeometry width="120" height="80" as="geometry"/>
                </mxCell>
                <mxCell id="4u6x7rTlO3XGqmi1SIRX-108" value="itemName" style="text;html=1;strokeColor=none;fillColor=none;align=center;verticalAlign=middle;whiteSpace=wrap;rounded=0;fontSize=20;" parent="4u6x7rTlO3XGqmi1SIRX-106" vertex="1">
                    <mxGeometry x="10" y="20" width="100" height="40" as="geometry"/>
                </mxCell>
                <mxCell id="4u6x7rTlO3XGqmi1SIRX-109" value="" style="group" parent="1" vertex="1" connectable="0">
                    <mxGeometry x="130" y="550" width="120" height="80" as="geometry"/>
                </mxCell>
                <mxCell id="4u6x7rTlO3XGqmi1SIRX-110" value="" style="ellipse;whiteSpace=wrap;html=1;fontSize=20;fillColor=#33FFFF;" parent="4u6x7rTlO3XGqmi1SIRX-109" vertex="1">
                    <mxGeometry width="120" height="80" as="geometry"/>
                </mxCell>
                <mxCell id="4u6x7rTlO3XGqmi1SIRX-111" value="restID*" style="text;html=1;strokeColor=none;fillColor=none;align=center;verticalAlign=middle;whiteSpace=wrap;rounded=0;fontSize=20;" parent="4u6x7rTlO3XGqmi1SIRX-109" vertex="1">
                    <mxGeometry x="10" y="20" width="100" height="40" as="geometry"/>
                </mxCell>
                <mxCell id="4u6x7rTlO3XGqmi1SIRX-112" value="" style="group" parent="1" vertex="1" connectable="0">
                    <mxGeometry x="270" y="680" width="120" height="80" as="geometry"/>
                </mxCell>
                <mxCell id="4u6x7rTlO3XGqmi1SIRX-113" value="" style="ellipse;whiteSpace=wrap;html=1;fontSize=20;fillColor=#33FFFF;" parent="4u6x7rTlO3XGqmi1SIRX-112" vertex="1">
                    <mxGeometry width="120" height="80" as="geometry"/>
                </mxCell>
                <mxCell id="4u6x7rTlO3XGqmi1SIRX-114" value="Description" style="text;html=1;strokeColor=none;fillColor=none;align=center;verticalAlign=middle;whiteSpace=wrap;rounded=0;fontSize=20;" parent="4u6x7rTlO3XGqmi1SIRX-112" vertex="1">
                    <mxGeometry x="10" y="20" width="100" height="40" as="geometry"/>
                </mxCell>
                <mxCell id="4u6x7rTlO3XGqmi1SIRX-115" value="" style="group" parent="1" vertex="1" connectable="0">
                    <mxGeometry x="390" y="660" width="120" height="80" as="geometry"/>
                </mxCell>
                <mxCell id="4u6x7rTlO3XGqmi1SIRX-116" value="" style="ellipse;whiteSpace=wrap;html=1;fontSize=20;fillColor=#33FFFF;" parent="4u6x7rTlO3XGqmi1SIRX-115" vertex="1">
                    <mxGeometry width="120" height="80" as="geometry"/>
                </mxCell>
                <mxCell id="4u6x7rTlO3XGqmi1SIRX-117" value="Price" style="text;html=1;strokeColor=none;fillColor=none;align=center;verticalAlign=middle;whiteSpace=wrap;rounded=0;fontSize=20;" parent="4u6x7rTlO3XGqmi1SIRX-115" vertex="1">
                    <mxGeometry x="10" y="20" width="100" height="40" as="geometry"/>
                </mxCell>
                <mxCell id="4u6x7rTlO3XGqmi1SIRX-118" value="" style="endArrow=none;html=1;rounded=0;fontSize=20;" parent="1" source="4u6x7rTlO3XGqmi1SIRX-104" target="4u6x7rTlO3XGqmi1SIRX-188" edge="1">
                    <mxGeometry width="50" height="50" relative="1" as="geometry">
                        <mxPoint x="260" y="540" as="sourcePoint"/>
                        <mxPoint x="270" y="540" as="targetPoint"/>
                    </mxGeometry>
                </mxCell>
                <mxCell id="4u6x7rTlO3XGqmi1SIRX-119" value="" style="endArrow=none;html=1;rounded=0;fontSize=20;" parent="1" source="4u6x7rTlO3XGqmi1SIRX-188" target="4u6x7rTlO3XGqmi1SIRX-110" edge="1">
                    <mxGeometry width="50" height="50" relative="1" as="geometry">
                        <mxPoint x="304.9999999999998" y="620" as="sourcePoint"/>
                        <mxPoint x="300" y="600" as="targetPoint"/>
                    </mxGeometry>
                </mxCell>
                <mxCell id="4u6x7rTlO3XGqmi1SIRX-120" value="" style="endArrow=none;html=1;rounded=0;fontSize=20;" parent="1" source="4u6x7rTlO3XGqmi1SIRX-188" target="4u6x7rTlO3XGqmi1SIRX-107" edge="1">
                    <mxGeometry width="50" height="50" relative="1" as="geometry">
                        <mxPoint x="350" y="620" as="sourcePoint"/>
                        <mxPoint x="282.42640687119274" y="651.7157287525382" as="targetPoint"/>
                    </mxGeometry>
                </mxCell>
                <mxCell id="4u6x7rTlO3XGqmi1SIRX-124" value="" style="endArrow=none;html=1;rounded=0;fontSize=20;" parent="1" source="4u6x7rTlO3XGqmi1SIRX-188" target="4u6x7rTlO3XGqmi1SIRX-113" edge="1">
                    <mxGeometry width="50" height="50" relative="1" as="geometry">
                        <mxPoint x="391.25" y="620" as="sourcePoint"/>
                        <mxPoint x="360" y="680" as="targetPoint"/>
                    </mxGeometry>
                </mxCell>
                <mxCell id="4u6x7rTlO3XGqmi1SIRX-125" value="" style="endArrow=none;html=1;rounded=0;fontSize=20;" parent="1" source="4u6x7rTlO3XGqmi1SIRX-188" target="4u6x7rTlO3XGqmi1SIRX-116" edge="1">
                    <mxGeometry width="50" height="50" relative="1" as="geometry">
                        <mxPoint x="470" y="530" as="sourcePoint"/>
                        <mxPoint x="429.456522288968" y="650.5138343919767" as="targetPoint"/>
                    </mxGeometry>
                </mxCell>
                <mxCell id="4u6x7rTlO3XGqmi1SIRX-141" value="" style="group" parent="1" vertex="1" connectable="0">
                    <mxGeometry x="595" y="450" width="80" height="80" as="geometry"/>
                </mxCell>
                <mxCell id="4u6x7rTlO3XGqmi1SIRX-142" value="" style="rhombus;whiteSpace=wrap;html=1;fontSize=20;fillColor=#FFFF00;" parent="4u6x7rTlO3XGqmi1SIRX-141" vertex="1">
                    <mxGeometry width="80" height="80" as="geometry"/>
                </mxCell>
                <mxCell id="4u6x7rTlO3XGqmi1SIRX-143" value="&lt;font style=&quot;font-size: 14px;&quot;&gt;Receives&lt;/font&gt;" style="text;html=1;strokeColor=none;fillColor=none;align=center;verticalAlign=middle;whiteSpace=wrap;rounded=0;fontSize=20;" parent="4u6x7rTlO3XGqmi1SIRX-141" vertex="1">
                    <mxGeometry x="10" y="20" width="60" height="35" as="geometry"/>
                </mxCell>
                <mxCell id="4u6x7rTlO3XGqmi1SIRX-144" value="" style="endArrow=none;html=1;rounded=0;fontSize=14;" parent="1" source="4u6x7rTlO3XGqmi1SIRX-32" target="4u6x7rTlO3XGqmi1SIRX-142" edge="1">
                    <mxGeometry width="50" height="50" relative="1" as="geometry">
                        <mxPoint x="680" y="440" as="sourcePoint"/>
                        <mxPoint x="730" y="390" as="targetPoint"/>
                    </mxGeometry>
                </mxCell>
                <mxCell id="4u6x7rTlO3XGqmi1SIRX-145" value="" style="endArrow=none;html=1;rounded=0;fontSize=14;" parent="1" source="4u6x7rTlO3XGqmi1SIRX-142" target="4u6x7rTlO3XGqmi1SIRX-185" edge="1">
                    <mxGeometry width="50" height="50" relative="1" as="geometry">
                        <mxPoint x="674" y="380" as="sourcePoint"/>
                        <mxPoint x="769" y="560" as="targetPoint"/>
                    </mxGeometry>
                </mxCell>
                <mxCell id="4u6x7rTlO3XGqmi1SIRX-146" value="1" style="text;html=1;strokeColor=none;fillColor=none;align=center;verticalAlign=middle;whiteSpace=wrap;rounded=0;fontSize=20;" parent="1" vertex="1">
                    <mxGeometry x="620" y="380" width="30" height="20" as="geometry"/>
                </mxCell>
                <mxCell id="4u6x7rTlO3XGqmi1SIRX-183" value="" style="group" parent="1" vertex="1" connectable="0">
                    <mxGeometry x="540" y="310" width="120" height="60" as="geometry"/>
                </mxCell>
                <mxCell id="4u6x7rTlO3XGqmi1SIRX-32" value="" style="rounded=0;whiteSpace=wrap;html=1;fillColor=#33FF99;" parent="4u6x7rTlO3XGqmi1SIRX-183" vertex="1">
                    <mxGeometry width="120" height="60" as="geometry"/>
                </mxCell>
                <mxCell id="4u6x7rTlO3XGqmi1SIRX-33" value="&lt;b&gt;&lt;font style=&quot;font-size: 20px;&quot;&gt;Restaurant&lt;/font&gt;&lt;/b&gt;" style="text;html=1;strokeColor=none;fillColor=#33FF99;align=center;verticalAlign=middle;whiteSpace=wrap;rounded=0;" parent="4u6x7rTlO3XGqmi1SIRX-183" vertex="1">
                    <mxGeometry x="10" y="10" width="100" height="40" as="geometry"/>
                </mxCell>
                <mxCell id="4u6x7rTlO3XGqmi1SIRX-187" value="" style="group" parent="1" vertex="1" connectable="0">
                    <mxGeometry x="290" y="560" width="120" height="60" as="geometry"/>
                </mxCell>
                <mxCell id="4u6x7rTlO3XGqmi1SIRX-188" value="" style="rounded=0;whiteSpace=wrap;html=1;fillColor=#33FF99;" parent="4u6x7rTlO3XGqmi1SIRX-187" vertex="1">
                    <mxGeometry width="120" height="60" as="geometry"/>
                </mxCell>
                <mxCell id="4u6x7rTlO3XGqmi1SIRX-189" value="&lt;span style=&quot;font-size: 20px;&quot;&gt;&lt;b&gt;MenuItem&lt;/b&gt;&lt;/span&gt;" style="text;html=1;strokeColor=none;fillColor=#33FF99;align=center;verticalAlign=middle;whiteSpace=wrap;rounded=0;" parent="4u6x7rTlO3XGqmi1SIRX-187" vertex="1">
                    <mxGeometry x="10" y="10" width="100" height="40" as="geometry"/>
                </mxCell>
                <mxCell id="yi5TaBq6CmcvU0_qPbko-27" value="" style="group" parent="1" vertex="1" connectable="0">
                    <mxGeometry x="720" y="230" width="120" height="80" as="geometry"/>
                </mxCell>
                <mxCell id="yi5TaBq6CmcvU0_qPbko-28" value="" style="ellipse;whiteSpace=wrap;html=1;fontSize=20;fillColor=#33FFFF;" parent="yi5TaBq6CmcvU0_qPbko-27" vertex="1">
                    <mxGeometry width="120" height="80" as="geometry"/>
                </mxCell>
                <mxCell id="yi5TaBq6CmcvU0_qPbko-29" value="Cuisine" style="text;html=1;strokeColor=none;fillColor=none;align=center;verticalAlign=middle;whiteSpace=wrap;rounded=0;fontSize=20;" parent="yi5TaBq6CmcvU0_qPbko-27" vertex="1">
                    <mxGeometry x="10" y="20" width="100" height="40" as="geometry"/>
                </mxCell>
                <mxCell id="yi5TaBq6CmcvU0_qPbko-30" value="" style="endArrow=none;html=1;rounded=0;" parent="1" source="yi5TaBq6CmcvU0_qPbko-28" target="4u6x7rTlO3XGqmi1SIRX-32" edge="1">
                    <mxGeometry width="50" height="50" relative="1" as="geometry">
                        <mxPoint x="940" y="260" as="sourcePoint"/>
                        <mxPoint x="990" y="210" as="targetPoint"/>
                    </mxGeometry>
                </mxCell>
                <mxCell id="2" value="" style="endArrow=none;html=1;" parent="1" source="4u6x7rTlO3XGqmi1SIRX-32" target="4u6x7rTlO3XGqmi1SIRX-16" edge="1">
                    <mxGeometry width="50" height="50" relative="1" as="geometry">
                        <mxPoint x="510" y="370" as="sourcePoint"/>
                        <mxPoint x="580" y="420" as="targetPoint"/>
                    </mxGeometry>
                </mxCell>
                <mxCell id="5" value="" style="group" vertex="1" connectable="0" parent="1">
                    <mxGeometry x="570" y="550" width="280" height="250" as="geometry"/>
                </mxCell>
                <mxCell id="4u6x7rTlO3XGqmi1SIRX-129" value="" style="group" parent="5" vertex="1" connectable="0">
                    <mxGeometry y="170" width="120" height="80" as="geometry"/>
                </mxCell>
                <mxCell id="4u6x7rTlO3XGqmi1SIRX-130" value="" style="ellipse;whiteSpace=wrap;html=1;fontSize=20;fillColor=#33FFFF;" parent="4u6x7rTlO3XGqmi1SIRX-129" vertex="1">
                    <mxGeometry width="120" height="80" as="geometry"/>
                </mxCell>
                <mxCell id="4u6x7rTlO3XGqmi1SIRX-131" value="&lt;u&gt;refID&lt;/u&gt;" style="text;html=1;strokeColor=none;fillColor=none;align=center;verticalAlign=middle;whiteSpace=wrap;rounded=0;fontSize=20;" parent="4u6x7rTlO3XGqmi1SIRX-129" vertex="1">
                    <mxGeometry x="10" y="20" width="100" height="40" as="geometry"/>
                </mxCell>
                <mxCell id="4u6x7rTlO3XGqmi1SIRX-132" value="" style="group" parent="5" vertex="1" connectable="0">
                    <mxGeometry x="160" y="80" width="120" height="80" as="geometry"/>
                </mxCell>
                <mxCell id="4u6x7rTlO3XGqmi1SIRX-133" value="" style="ellipse;whiteSpace=wrap;html=1;fontSize=20;fillColor=#33FFFF;" parent="4u6x7rTlO3XGqmi1SIRX-132" vertex="1">
                    <mxGeometry width="120" height="80" as="geometry"/>
                </mxCell>
                <mxCell id="4u6x7rTlO3XGqmi1SIRX-134" value="points" style="text;html=1;strokeColor=none;fillColor=none;align=center;verticalAlign=middle;whiteSpace=wrap;rounded=0;fontSize=20;" parent="4u6x7rTlO3XGqmi1SIRX-132" vertex="1">
                    <mxGeometry x="10" y="20" width="100" height="40" as="geometry"/>
                </mxCell>
                <mxCell id="4u6x7rTlO3XGqmi1SIRX-135" value="" style="group" parent="5" vertex="1" connectable="0">
                    <mxGeometry x="140" width="120" height="80" as="geometry"/>
                </mxCell>
                <mxCell id="4u6x7rTlO3XGqmi1SIRX-136" value="" style="ellipse;whiteSpace=wrap;html=1;fontSize=20;fillColor=#33FFFF;" parent="4u6x7rTlO3XGqmi1SIRX-135" vertex="1">
                    <mxGeometry width="120" height="80" as="geometry"/>
                </mxCell>
                <mxCell id="4u6x7rTlO3XGqmi1SIRX-137" value="reviewdate" style="text;html=1;strokeColor=none;fillColor=none;align=center;verticalAlign=middle;whiteSpace=wrap;rounded=0;fontSize=20;" parent="4u6x7rTlO3XGqmi1SIRX-135" vertex="1">
                    <mxGeometry x="10" y="20" width="100" height="40" as="geometry"/>
                </mxCell>
                <mxCell id="4u6x7rTlO3XGqmi1SIRX-138" value="" style="endArrow=none;html=1;rounded=0;fontSize=20;" parent="5" source="4u6x7rTlO3XGqmi1SIRX-130" target="4u6x7rTlO3XGqmi1SIRX-185" edge="1">
                    <mxGeometry width="50" height="50" relative="1" as="geometry">
                        <mxPoint x="60" y="40" as="sourcePoint"/>
                        <mxPoint x="60" y="140" as="targetPoint"/>
                    </mxGeometry>
                </mxCell>
                <mxCell id="4u6x7rTlO3XGqmi1SIRX-139" value="" style="endArrow=none;html=1;rounded=0;fontSize=20;" parent="5" source="4u6x7rTlO3XGqmi1SIRX-133" target="4u6x7rTlO3XGqmi1SIRX-185" edge="1">
                    <mxGeometry width="50" height="50" relative="1" as="geometry">
                        <mxPoint x="70" y="180" as="sourcePoint"/>
                        <mxPoint x="105" y="140" as="targetPoint"/>
                    </mxGeometry>
                </mxCell>
                <mxCell id="4u6x7rTlO3XGqmi1SIRX-140" value="" style="endArrow=none;html=1;rounded=0;fontSize=20;" parent="5" source="4u6x7rTlO3XGqmi1SIRX-136" target="4u6x7rTlO3XGqmi1SIRX-185" edge="1">
                    <mxGeometry width="50" height="50" relative="1" as="geometry">
                        <mxPoint x="147.63027495933602" y="171.6779912829786" as="sourcePoint"/>
                        <mxPoint x="180" y="30" as="targetPoint"/>
                    </mxGeometry>
                </mxCell>
                <mxCell id="4u6x7rTlO3XGqmi1SIRX-147" value="M" style="text;html=1;strokeColor=none;fillColor=none;align=center;verticalAlign=middle;whiteSpace=wrap;rounded=0;fontSize=20;" parent="5" vertex="1">
                    <mxGeometry x="40" y="50" width="20" height="20" as="geometry"/>
                </mxCell>
                <mxCell id="4u6x7rTlO3XGqmi1SIRX-184" value="" style="group" parent="5" vertex="1" connectable="0">
                    <mxGeometry x="10" y="80" width="120" height="60" as="geometry"/>
                </mxCell>
                <mxCell id="4u6x7rTlO3XGqmi1SIRX-185" value="" style="rounded=0;whiteSpace=wrap;html=1;fillColor=#33FF99;" parent="4u6x7rTlO3XGqmi1SIRX-184" vertex="1">
                    <mxGeometry width="120" height="60" as="geometry"/>
                </mxCell>
                <mxCell id="4u6x7rTlO3XGqmi1SIRX-186" value="&lt;span style=&quot;font-size: 20px;&quot;&gt;&lt;b&gt;Score&lt;/b&gt;&lt;/span&gt;" style="text;html=1;strokeColor=none;fillColor=#33FF99;align=center;verticalAlign=middle;whiteSpace=wrap;rounded=0;" parent="4u6x7rTlO3XGqmi1SIRX-184" vertex="1">
                    <mxGeometry x="10" y="10" width="100" height="40" as="geometry"/>
                </mxCell>
                <mxCell id="4u6x7rTlO3XGqmi1SIRX-190" value="" style="group" parent="5" vertex="1" connectable="0">
                    <mxGeometry x="120" y="160" width="120" height="80" as="geometry"/>
                </mxCell>
                <mxCell id="4u6x7rTlO3XGqmi1SIRX-191" value="" style="ellipse;whiteSpace=wrap;html=1;fontSize=20;fillColor=#33FFFF;" parent="4u6x7rTlO3XGqmi1SIRX-190" vertex="1">
                    <mxGeometry width="120" height="80" as="geometry"/>
                </mxCell>
                <mxCell id="4u6x7rTlO3XGqmi1SIRX-192" value="restID*" style="text;html=1;strokeColor=none;fillColor=none;align=center;verticalAlign=middle;whiteSpace=wrap;rounded=0;fontSize=20;" parent="4u6x7rTlO3XGqmi1SIRX-190" vertex="1">
                    <mxGeometry x="10" y="20" width="100" height="40" as="geometry"/>
                </mxCell>
                <mxCell id="4u6x7rTlO3XGqmi1SIRX-193" value="" style="endArrow=none;html=1;rounded=0;fontSize=14;fontColor=#33FF99;" parent="5" source="4u6x7rTlO3XGqmi1SIRX-191" target="4u6x7rTlO3XGqmi1SIRX-185" edge="1">
                    <mxGeometry width="50" height="50" relative="1" as="geometry">
                        <mxPoint x="150" y="310" as="sourcePoint"/>
                        <mxPoint x="200" y="260" as="targetPoint"/>
                    </mxGeometry>
                </mxCell>
            </root>
        </mxGraphModel>
    </diagram>
</mxfile>